<?xml version="1.0" standalone="no"?><!-- Generator: Gravit.io --><svg xmlns="http://www.w3.org/2000/svg" xmlns:xlink="http://www.w3.org/1999/xlink" style="isolation:isolate" viewBox="0 0 33 31" width="33" height="31"><defs><clipPath id="_clipPath_cfl4uNp9J2tiwjkhxnDjNPSV9eQCYRVR"><rect width="33" height="31"/></clipPath></defs><g clip-path="url(#_clipPath_cfl4uNp9J2tiwjkhxnDjNPSV9eQCYRVR)"><path d=" M 18.809 26.365 L 16.744 26.365 L 16.744 24.245 C 16.881 24.22 17.294 23.987 17.487 23.987 C 17.515 24.09 17.597 24.116 17.68 24.194 C 17.873 24.401 17.762 24.323 18.093 24.581 C 18.396 24.814 18.368 24.814 18.781 25.124 C 18.919 25.228 19.112 25.357 19.277 25.434 C 19.25 25.538 18.836 26.236 18.809 26.365 Z  M 13.714 25.434 C 13.907 25.331 14.017 25.253 14.21 25.124 L 15.504 23.987 C 15.752 24.013 16.083 24.22 16.22 24.245 L 16.22 26.365 L 14.265 26.365 C 14.155 26.365 13.99 26.003 13.962 25.926 C 13.88 25.745 13.797 25.589 13.714 25.434 Z  M 17.983 23.78 C 18.093 23.754 18.286 23.677 18.396 23.625 C 18.506 23.573 18.754 23.47 18.864 23.47 C 18.892 23.599 19.167 23.806 19.277 23.909 C 19.938 24.53 20.847 25.073 21.811 25.202 C 22.224 25.279 22.169 25.124 21.756 25.822 L 21.453 26.365 L 19.387 26.365 C 19.442 26.158 19.58 25.977 19.663 25.796 C 19.773 25.589 19.855 25.409 19.966 25.202 C 19.91 25.202 19.883 25.176 19.828 25.15 C 19.773 25.124 19.718 25.098 19.663 25.073 C 19.167 24.84 18.231 24.168 17.983 23.78 Z  M 13.053 25.202 C 13.081 25.357 13.577 26.21 13.604 26.365 L 11.566 26.365 C 11.429 26.21 11.346 26.003 11.236 25.822 C 11.153 25.693 10.905 25.383 10.905 25.253 C 11.236 25.253 11.704 25.098 11.952 25.021 C 12.31 24.866 12.503 24.762 12.805 24.607 C 12.943 24.53 13.053 24.452 13.191 24.375 L 13.522 24.09 C 13.659 23.987 13.769 23.909 13.852 23.78 L 14.182 23.47 C 14.348 23.496 14.843 23.754 15.009 23.78 L 14.127 24.581 C 13.632 24.917 13.604 24.943 13.053 25.202 Z  M 13.88 22.824 M 14.678 22.695 M 16.496 23.728 C 16.413 23.625 16.33 23.599 16.22 23.496 L 15.67 22.979 C 15.229 22.565 14.485 21.661 14.238 21.17 C 13.99 20.73 13.907 20.575 13.714 20.11 C 13.163 18.637 13.411 16.853 14.072 15.457 L 14.485 14.656 C 14.54 14.527 14.596 14.423 14.678 14.294 L 15.284 13.389 C 15.339 13.312 15.367 13.286 15.422 13.209 C 15.587 12.976 15.752 12.769 15.945 12.537 C 16.028 12.433 16.11 12.33 16.22 12.201 L 16.523 11.89 L 17.019 12.485 C 17.377 12.95 17.68 13.312 18.01 13.803 C 18.286 14.217 18.616 14.785 18.809 15.225 C 18.947 15.483 19.057 15.742 19.139 16.026 L 19.415 16.879 C 19.497 17.267 19.608 17.964 19.58 18.352 L 19.552 18.869 C 19.36 20.136 19.029 20.989 18.203 22.023 C 18.12 22.152 18.038 22.229 17.955 22.333 C 17.68 22.669 16.826 23.522 16.496 23.728 Z  M 23.38 18.714 C 23.38 19.981 23.215 20.885 21.976 21.687 C 21.866 21.738 21.783 21.79 21.673 21.867 C 20.571 22.488 19.608 22.591 19.084 22.85 C 19.112 22.746 19.497 22.539 19.58 22.462 C 19.69 22.41 19.773 22.359 19.855 22.281 C 19.938 22.203 20.021 22.152 20.131 22.074 C 20.296 21.945 20.461 21.842 20.599 21.687 C 21.838 20.523 22.196 19.283 21.948 17.654 C 21.893 17.344 21.838 17.034 21.783 16.75 L 21.563 15.897 C 21.37 14.863 21.177 15.121 21.893 14.604 C 22.306 14.32 22.664 14.139 23.133 13.958 C 23.27 13.932 23.353 13.881 23.491 13.855 C 23.628 13.803 23.766 13.751 23.876 13.751 C 23.821 14.062 23.353 14.578 23.215 16 C 23.188 16.62 23.38 17.913 23.38 18.714 Z  M 13.88 22.824 C 13.742 22.798 12.723 22.462 12.503 22.384 C 12.034 22.229 11.649 22.048 11.236 21.816 C 9.666 20.937 9.556 19.851 9.611 18.223 C 9.611 18.068 9.639 17.99 9.639 17.809 L 9.749 16.595 C 9.804 15.742 9.583 14.811 9.253 14.087 C 9.198 13.984 9.115 13.855 9.088 13.751 C 9.611 13.803 10.575 14.294 11.043 14.578 L 11.594 14.992 C 11.594 15.147 11.401 15.948 11.346 16.129 C 11.071 17.37 10.74 18.585 11.126 19.8 C 11.346 20.523 11.731 21.092 12.255 21.557 L 13.466 22.514 C 13.549 22.591 13.824 22.746 13.88 22.824 Z  M 14.678 22.695 C 14.403 22.617 13.356 21.842 13.081 21.609 C 12.778 21.402 12.392 21.014 12.172 20.73 C 12.007 20.523 11.924 20.368 11.814 20.162 C 11.373 19.309 11.401 18.068 11.649 17.163 C 11.759 16.672 11.842 16.207 11.979 15.716 C 12.255 14.63 12.2 13.984 11.869 12.95 C 11.842 12.847 11.814 12.847 11.787 12.769 C 11.952 12.769 12.392 12.898 12.558 12.924 C 12.998 13.079 14.045 13.648 14.293 13.958 C 14.21 14.113 14.1 14.294 14.017 14.449 L 13.522 15.431 C 13.329 15.923 13.274 16.078 13.136 16.517 C 12.723 17.835 12.861 19.696 13.494 20.885 C 13.549 20.963 13.549 21.014 13.604 21.118 C 13.824 21.557 14.21 22.074 14.513 22.462 C 14.568 22.539 14.651 22.617 14.678 22.695 Z  M 20.819 14.398 C 20.819 14.992 20.847 15.044 20.984 15.612 C 21.398 17.37 22.031 19.334 20.682 20.885 C 20.516 21.092 20.186 21.402 19.993 21.531 C 19.635 21.816 18.699 22.565 18.396 22.643 L 18.974 21.79 C 19.58 20.963 20.076 19.593 20.076 18.559 C 20.076 17.163 19.91 16.517 19.415 15.302 L 18.699 13.906 C 18.781 13.881 19.057 13.648 19.222 13.545 L 19.8 13.209 C 20.048 13.053 20.847 12.769 21.205 12.769 C 21.012 13.079 20.819 14.01 20.819 14.398 Z  M 15.119 12.769 M 15.917 11.761 C 15.917 10.882 15.972 9.616 16 8.685 C 16.028 8.349 15.972 7.987 16 7.651 L 16.055 5.609 C 16.055 4.912 16.083 4.265 16.083 3.542 L 16.22 3.542 L 16.22 11.425 C 16.22 11.477 15.972 11.735 15.917 11.761 Z  M 16.744 11.399 L 16.744 3.542 L 16.881 3.542 C 16.881 3.697 16.881 3.878 16.881 4.033 C 16.881 4.239 16.909 4.343 16.909 4.55 C 16.909 4.86 16.881 5.325 16.936 5.609 C 16.964 5.894 16.964 6.281 16.936 6.617 C 16.936 6.824 16.964 6.953 16.991 7.109 L 17.019 9.176 C 17.019 9.383 17.046 9.487 17.046 9.693 C 17.046 10.417 17.074 11.037 17.074 11.761 C 17.019 11.709 16.744 11.451 16.744 11.399 Z  M 14.568 13.545 C 14.513 13.493 14.485 13.467 14.43 13.415 C 14.072 13.131 13.494 12.769 13.081 12.614 C 12.75 12.485 12.503 12.381 12.117 12.304 C 11.787 12.252 11.373 12.201 10.988 12.201 C 11.043 12.433 11.649 13.364 11.649 14.398 C 11.098 14.062 10.878 13.829 10.107 13.545 C 9.556 13.338 8.675 13.105 8.069 13.105 C 8.62 13.906 8.95 14.449 9.17 15.483 C 9.281 16 9.253 16.491 9.198 17.034 C 9.06 18.947 8.757 20.704 10.575 21.971 C 11.236 22.436 12.007 22.772 12.805 23.031 C 13.081 23.108 13.384 23.212 13.659 23.289 C 13.522 23.47 12.998 23.884 12.75 24.064 C 12.64 24.116 12.53 24.194 12.42 24.271 C 12.145 24.401 11.924 24.504 11.621 24.607 C 11.373 24.685 10.96 24.788 10.657 24.788 C 10.492 24.788 9.225 23.935 8.95 23.651 C 8.867 23.573 8.785 23.548 8.675 23.444 C 8.427 23.212 8.482 23.289 8.207 22.979 C 8.124 22.901 8.041 22.85 7.959 22.772 L 7.518 22.255 C 6.995 21.661 6.554 21.014 6.169 20.317 L 5.866 19.696 C 4.957 17.628 4.737 15.509 5.232 13.234 C 5.48 12.045 6.224 10.339 7.05 9.331 C 7.133 9.202 7.215 9.073 7.325 8.97 L 7.766 8.453 C 7.849 8.375 7.849 8.349 7.931 8.272 C 8.041 8.142 8.151 8.091 8.262 7.962 C 8.372 7.806 8.454 7.781 8.592 7.651 C 9.473 6.824 10.63 6.152 11.787 5.635 C 12.53 5.325 13.494 5.041 14.32 4.886 C 14.54 4.86 14.733 4.834 14.926 4.808 C 14.926 5.015 14.898 5.118 14.898 5.325 C 14.898 5.661 14.871 5.687 14.843 5.868 C 14.843 6.049 14.871 6.256 14.843 6.437 C 14.816 6.928 14.816 7.574 14.761 8.065 L 14.733 9.151 C 14.733 9.357 14.706 9.461 14.706 9.693 L 14.623 11.864 C 14.623 12.201 14.596 12.226 14.596 12.407 C 14.596 12.821 14.568 13.131 14.568 13.545 Z  M 18.065 4.808 L 20.186 5.273 C 20.819 5.454 21.453 5.739 22.003 6.023 C 22.169 6.101 22.279 6.152 22.417 6.256 C 22.582 6.333 22.692 6.385 22.83 6.488 L 23.959 7.289 C 24.565 7.781 24.592 7.806 25.115 8.349 C 25.749 8.944 26.437 10.003 26.85 10.753 C 26.933 10.908 26.988 11.037 27.071 11.192 C 27.621 12.278 28.007 14.036 28.007 15.225 C 28.007 16.543 27.897 17.577 27.456 18.817 C 27.318 19.231 27.153 19.696 26.933 20.084 C 26.217 21.402 25.666 22.178 24.565 23.237 C 24.234 23.522 23.628 23.987 23.27 24.245 L 22.389 24.788 C 21.59 24.788 20.819 24.426 20.268 24.064 C 20.131 23.987 20.048 23.909 19.91 23.832 C 19.773 23.703 19.415 23.418 19.36 23.237 C 19.525 23.237 20.902 22.772 21.04 22.695 C 22.086 22.229 21.893 22.359 22.775 21.687 L 23.188 21.273 C 23.821 20.549 23.904 19.515 23.876 18.533 L 23.766 16.905 C 23.628 15.948 23.793 15.302 24.124 14.475 C 24.262 14.087 24.454 13.777 24.675 13.415 C 24.757 13.338 24.867 13.209 24.895 13.079 C 24.675 13.183 23.518 13.105 22.086 13.906 C 21.948 13.984 21.838 14.062 21.7 14.139 C 21.563 14.242 21.453 14.32 21.342 14.398 C 21.342 13.312 21.948 12.381 22.003 12.201 C 21.205 12.201 20.489 12.356 19.938 12.588 C 19.497 12.769 19.139 12.976 18.754 13.26 C 18.644 13.338 18.478 13.493 18.423 13.519 C 18.423 13.312 18.423 13.131 18.423 12.95 C 18.423 12.743 18.368 12.64 18.396 12.407 L 18.341 11.322 C 18.313 11.141 18.341 10.96 18.313 10.779 C 18.313 10.65 18.313 10.65 18.286 10.52 L 18.258 9.693 C 18.258 9.176 18.203 8.556 18.203 8.039 L 18.176 7.238 C 18.176 7.109 18.148 7.109 18.148 6.979 C 18.148 6.592 18.12 6.256 18.12 5.868 C 18.12 5.661 18.093 5.558 18.093 5.325 C 18.093 5.118 18.065 4.989 18.065 4.808 Z  M 15.119 12.769 C 15.119 12.33 15.146 12.02 15.146 11.606 C 15.146 11.399 15.174 11.27 15.174 11.037 C 15.174 10.805 15.201 10.676 15.201 10.469 C 15.201 10.055 15.229 9.719 15.229 9.306 C 15.229 9.176 15.256 9.176 15.256 9.047 L 15.284 8.168 C 15.284 7.393 15.367 6.617 15.367 5.842 C 15.367 5.609 15.394 5.506 15.394 5.273 C 15.394 5.067 15.422 4.886 15.422 4.705 C 15.449 4.524 15.422 4.317 15.422 4.136 C 15.449 3.929 15.449 3.748 15.449 3.542 L 15.614 3.542 C 15.614 5.015 15.477 6.798 15.477 8.272 C 15.477 8.453 15.477 8.659 15.477 8.866 C 15.477 9.099 15.449 9.254 15.449 9.461 C 15.449 9.642 15.449 9.848 15.449 10.029 L 15.394 12.407 C 15.367 12.459 15.312 12.511 15.256 12.588 C 15.201 12.64 15.174 12.717 15.119 12.769 Z  M 17.377 3.542 L 17.515 3.542 L 17.542 4.679 C 17.57 4.86 17.57 5.041 17.57 5.248 L 17.625 6.411 C 17.625 6.773 17.652 6.773 17.68 6.979 C 17.68 7.393 17.68 7.755 17.707 8.168 C 17.707 8.349 17.735 8.504 17.735 8.711 L 17.79 10.469 C 17.818 10.65 17.818 10.856 17.818 11.037 C 17.818 11.218 17.845 11.27 17.845 11.606 C 17.845 11.813 17.873 11.942 17.873 12.175 C 17.873 12.407 17.9 12.562 17.9 12.769 C 17.818 12.717 17.762 12.614 17.68 12.511 C 17.515 12.304 17.57 12.226 17.57 11.839 C 17.57 10.52 17.487 9.073 17.487 7.703 C 17.487 7.47 17.46 7.341 17.46 7.109 L 17.46 6.23 C 17.46 6.075 17.432 6.049 17.432 5.92 C 17.404 5.558 17.46 3.671 17.377 3.542 Z  M 15.697 2.068 C 15.697 1.991 16.028 1.732 16.11 1.655 C 16.193 1.551 16.358 1.345 16.523 1.241 C 16.661 1.448 16.909 1.629 17.102 1.862 C 17.157 1.913 17.294 1.991 17.294 2.068 L 17.294 3.025 L 15.697 3.025 L 15.697 2.068 Z  M 16.744 0.75 L 16.744 0.492 C 17.267 0.492 17.955 0.543 18.451 0.595 C 19.002 0.673 19.552 0.75 20.048 0.879 L 20.048 2.663 C 20.186 2.74 20.406 2.766 20.571 2.818 C 20.764 2.895 20.929 2.921 21.122 2.973 C 21.811 3.206 22.444 3.49 23.105 3.8 L 24.014 4.291 L 25.363 3.025 C 25.831 3.309 26.382 3.671 26.795 4.033 C 27.043 4.239 27.318 4.42 27.539 4.653 C 28.282 5.351 29.026 6.075 29.604 6.902 C 29.687 7.005 29.769 7.109 29.852 7.212 C 29.797 7.289 29.742 7.315 29.687 7.393 L 28.53 8.556 C 28.585 8.659 28.64 8.737 28.723 8.84 L 29.219 9.745 C 29.439 10.133 29.632 10.598 29.797 11.037 L 30.265 12.433 C 30.348 12.511 31.945 12.459 32.165 12.459 C 32.303 12.976 32.358 13.596 32.441 14.139 C 32.468 14.501 32.468 14.914 32.523 15.251 L 32.441 16.776 C 32.413 17.189 32.358 17.732 32.248 18.145 C 31.89 18.171 30.54 18.171 30.403 18.223 C 30.265 18.249 30.32 18.223 30.293 18.352 L 30.155 18.895 C 30.1 19.024 30.072 19.153 30.045 19.257 L 29.797 19.981 C 29.742 20.11 29.714 20.187 29.659 20.317 C 29.384 20.963 29.053 21.557 28.695 22.178 C 29.053 22.384 29.411 22.85 29.714 23.134 C 29.824 23.237 29.962 23.341 30.045 23.47 C 30.017 23.625 29.714 23.987 29.604 24.116 C 29.439 24.349 29.274 24.53 29.108 24.737 C 28.861 25.047 28.613 25.331 28.31 25.615 L 28.062 25.9 C 27.263 26.623 26.465 27.295 25.556 27.89 L 24.207 26.623 C 23.766 26.83 23.325 27.114 22.83 27.347 C 22.031 27.709 21.095 28.097 20.213 28.278 L 20.213 30.113 C 19.938 30.113 19.663 30.216 19.415 30.268 C 18.589 30.397 17.57 30.501 16.744 30.501 L 16.744 26.856 L 21.673 26.856 C 21.783 26.856 21.866 26.623 21.921 26.546 L 22.251 26.003 C 22.361 25.822 22.637 25.253 22.775 25.15 C 22.857 25.073 23.05 24.969 23.133 24.917 C 24.454 24.09 25.859 22.824 26.657 21.557 C 27.456 20.265 28.062 19.076 28.337 17.551 C 28.668 15.587 28.558 13.726 27.897 11.864 C 27.649 11.218 27.318 10.52 26.96 9.926 C 26.272 8.866 25.639 8.039 24.647 7.186 C 23.931 6.566 23.133 6.023 22.251 5.584 C 21.315 5.118 20.379 4.782 19.305 4.524 C 19.112 4.472 18.892 4.446 18.699 4.395 C 18.589 4.369 18.451 4.369 18.368 4.343 C 18.286 4.343 18.12 4.343 18.065 4.291 C 18.038 4.239 18.01 3.438 18.01 3.283 C 18.01 3.025 18.01 3.025 17.79 3.025 L 17.818 1.887 C 17.818 1.784 17.267 1.319 17.157 1.189 C 17.074 1.112 16.744 0.853 16.744 0.75 Z  M 14.954 4.317 C 14.816 4.317 14.485 4.369 14.375 4.395 C 13.632 4.524 12.916 4.705 12.2 4.937 C 11.566 5.196 10.96 5.48 10.355 5.79 L 8.757 6.876 C 8.675 6.928 8.647 6.953 8.565 7.031 C 8.317 7.212 8.069 7.419 7.849 7.651 C 7.793 7.703 7.766 7.755 7.711 7.806 C 7.408 8.091 7.16 8.375 6.912 8.685 L 6.499 9.228 C 6.251 9.564 6.031 9.9 5.838 10.236 L 5.508 10.908 C 5.453 11.037 5.37 11.192 5.315 11.348 C 5.232 11.503 5.177 11.658 5.122 11.839 C 4.874 12.511 4.709 13.183 4.599 13.906 C 4.296 15.871 4.571 18.094 5.398 19.877 C 5.48 20.006 5.535 20.11 5.59 20.239 C 5.645 20.394 5.701 20.498 5.783 20.627 C 6.141 21.325 6.609 21.997 7.133 22.591 C 7.435 22.927 7.738 23.263 8.096 23.573 L 9.859 24.917 C 10.272 25.176 10.189 25.073 10.41 25.46 L 11.043 26.494 C 11.126 26.598 11.208 26.727 11.236 26.856 L 16.275 26.856 L 16.275 30.501 C 15.312 30.501 14.43 30.423 13.522 30.268 C 13.301 30.216 12.916 30.164 12.695 30.087 L 12.695 28.278 C 12.558 28.2 12.337 28.174 12.172 28.123 L 11.126 27.761 C 10.465 27.502 9.831 27.192 9.225 26.856 C 9.06 26.778 8.895 26.649 8.757 26.598 L 7.408 27.864 C 7.16 27.735 6.967 27.554 6.747 27.399 C 6.417 27.166 6.114 26.908 5.783 26.675 C 5.673 26.598 5.618 26.494 5.508 26.417 C 5.315 26.262 5.04 26.029 4.902 25.848 L 4.874 25.822 C 4.874 25.822 4.874 25.796 4.847 25.796 L 4.379 25.305 C 3.828 24.711 3.36 24.09 2.919 23.444 C 2.947 23.367 3.002 23.315 3.057 23.263 C 3.332 23.005 4.158 22.281 4.241 22.126 C 4.076 21.816 3.91 21.557 3.745 21.247 C 3.663 21.092 3.608 20.937 3.525 20.782 C 3.305 20.291 3.139 19.8 2.947 19.309 C 2.864 19.024 2.671 18.507 2.671 18.223 C 2.341 18.223 2.093 18.197 1.735 18.197 C 1.542 18.197 1.46 18.171 1.267 18.171 C 1.102 18.171 0.936 18.171 0.744 18.171 C 0.606 17.861 0.496 16.336 0.496 15.897 C 0.496 14.94 0.523 14.036 0.688 13.105 C 0.716 12.976 0.716 12.873 0.744 12.769 C 0.771 12.666 0.799 12.562 0.826 12.459 C 1.129 12.459 1.46 12.459 1.79 12.459 C 2.148 12.459 2.423 12.433 2.754 12.433 C 2.754 12.278 2.864 12.02 2.892 11.89 C 3.112 11.218 3.387 10.572 3.69 9.926 C 3.91 9.487 4.186 9.047 4.434 8.608 L 3.773 7.936 C 3.635 7.806 3.222 7.341 3.112 7.264 L 3.8 6.359 C 4.048 6.049 4.324 5.79 4.571 5.48 C 4.654 5.403 4.737 5.325 4.819 5.222 C 4.985 5.067 5.287 4.782 5.535 4.576 C 5.783 4.369 6.003 4.136 6.279 3.955 C 6.692 3.645 7.105 3.283 7.573 3.051 L 8.923 4.317 C 9.225 4.162 9.528 3.955 9.831 3.826 C 9.997 3.748 10.134 3.671 10.299 3.593 C 10.795 3.361 11.318 3.18 11.814 2.999 C 12.007 2.947 12.2 2.87 12.365 2.844 C 12.53 2.792 12.888 2.74 12.888 2.611 L 12.888 0.879 C 12.998 0.853 13.136 0.828 13.274 0.802 C 14.238 0.621 15.229 0.492 16.275 0.492 C 16.275 0.957 16.193 0.853 15.835 1.215 C 15.807 1.241 15.807 1.241 15.78 1.267 C 15.78 1.267 15.78 1.267 15.78 1.267 L 15.339 1.681 C 15.174 1.862 15.201 1.836 15.201 2.172 C 15.201 2.353 15.201 2.559 15.201 2.74 C 15.201 3.309 15.036 2.844 14.981 3.102 L 14.954 4.317 Z  M 12.392 0.492 C 12.392 1.112 12.365 1.681 12.365 2.327 C 12.255 2.378 12.034 2.43 11.897 2.456 C 11.484 2.585 11.015 2.74 10.602 2.921 C 10.465 2.999 10.355 3.051 10.189 3.102 L 9.005 3.697 L 7.628 2.43 C 7.133 2.766 6.637 3.076 6.141 3.438 L 5.425 4.007 C 5.122 4.291 4.709 4.576 4.461 4.912 C 4.324 5.067 4.131 5.222 3.993 5.377 L 3.718 5.713 C 3.305 6.178 2.754 6.824 2.478 7.315 L 2.809 7.677 C 3.002 7.884 3.663 8.478 3.8 8.659 C 3.745 8.814 3.47 9.254 3.387 9.435 C 2.974 10.184 2.561 11.115 2.368 11.942 C 2.01 11.942 1.762 11.968 1.404 11.968 C 1.074 11.968 0.744 11.968 0.413 11.968 C 0.386 12.226 0.275 12.511 0.248 12.769 C -0.083 14.656 -0.083 16.388 0.248 18.275 C 0.248 18.301 0.275 18.507 0.303 18.533 C 0.33 18.662 0.386 18.611 0.551 18.637 L 2.286 18.714 C 2.286 18.817 2.368 19.05 2.396 19.153 C 2.589 19.748 2.754 20.317 3.029 20.859 L 3.635 22.048 C 3.525 22.203 3.112 22.539 2.947 22.695 C 2.836 22.798 2.699 22.901 2.589 23.005 C 2.506 23.134 2.368 23.237 2.286 23.367 C 2.341 23.548 2.892 24.297 3.057 24.504 C 3.47 25.021 3.91 25.538 4.379 26.029 C 4.461 26.106 4.461 26.132 4.544 26.21 C 4.737 26.391 5.012 26.675 5.205 26.804 C 5.535 27.037 5.921 27.425 6.279 27.683 L 6.664 27.942 C 6.802 28.045 6.912 28.123 7.05 28.2 C 7.215 28.303 7.298 28.381 7.463 28.459 L 8.84 27.192 C 9.583 27.683 11.346 28.459 12.2 28.639 C 12.2 29.079 12.172 29.622 12.227 30.009 C 12.227 30.139 12.227 30.345 12.227 30.475 C 12.42 30.501 12.943 30.63 13.163 30.681 C 13.466 30.733 13.769 30.785 14.127 30.837 C 15.972 31.095 17.983 31.043 19.773 30.707 C 20.021 30.656 20.516 30.578 20.709 30.475 L 20.709 28.665 C 21.205 28.536 22.031 28.226 22.499 28.019 C 23.353 27.657 23.435 27.58 24.124 27.244 L 24.454 27.528 C 24.565 27.657 24.675 27.735 24.785 27.864 C 24.95 28.019 25.336 28.381 25.501 28.484 C 26.024 28.174 26.547 27.812 27.043 27.451 C 27.263 27.244 27.511 27.063 27.731 26.856 C 27.952 26.649 28.172 26.442 28.42 26.236 C 28.475 26.184 28.503 26.132 28.558 26.081 C 28.64 26.003 28.668 25.977 28.723 25.9 C 29.026 25.564 29.356 25.253 29.632 24.892 C 30.017 24.401 30.403 23.909 30.706 23.392 C 30.293 23.134 29.769 22.359 29.329 22.1 C 29.466 21.842 29.632 21.609 29.742 21.325 C 30.1 20.627 30.375 19.929 30.595 19.179 C 30.623 19.076 30.706 18.792 30.733 18.714 L 32.688 18.611 L 32.909 17.112 C 33.019 16.233 33.019 15.225 32.964 14.346 C 32.936 13.751 32.799 12.898 32.661 12.33 C 32.551 11.839 32.688 11.968 31.807 11.968 L 30.623 11.942 C 30.595 11.709 30.43 11.296 30.348 11.063 C 30.017 10.184 29.604 9.409 29.163 8.608 L 30.485 7.289 C 30.43 7.083 30.237 6.902 30.127 6.747 C 29.797 6.333 29.494 5.92 29.136 5.532 C 29.081 5.48 29.053 5.454 28.998 5.377 L 28.2 4.576 C 27.263 3.697 26.382 3.076 25.308 2.404 L 23.959 3.671 C 23.766 3.619 23.353 3.361 23.16 3.283 C 22.609 3.025 22.086 2.766 21.48 2.585 C 21.315 2.534 20.737 2.327 20.571 2.327 C 20.571 1.681 20.544 1.112 20.544 0.466 C 20.406 0.466 20.241 0.414 20.103 0.388 C 19.966 0.362 19.828 0.311 19.663 0.285 C 18.01 -0.025 15.89 -0.103 14.238 0.156 L 12.392 0.492 Z " fill-rule="evenodd" fill="rgb(255,255,255)" vector-effect="non-scaling-stroke" stroke-width="0.257" stroke="rgb(255,255,255)" stroke-linejoin="miter" stroke-linecap="butt" stroke-miterlimit="4"/></g></svg>